# xmcd
#
# Track frame offsets:
#	150
#	24457
#	43067
#	68125
#	86705
#	100315
#	122130
#	143092
#	161975
#	182185
#
# Disc length: 2623 seconds
#
# Revision: 1
# Processed by: cddbd v1.4PL0 Copyright (c) Steve Scherf et al.
# Submitted via: audiograbber 1.80.04
#
DISCID=8d0a3d0a
DTITLE=Nighthawks - Pain and Paradise
DYEAR=1900
DGENRE=
TTITLE0=Trouble Comin' Every Day
TTITLE1=Shade Tree Mechanic
TTITLE2=Same Thing
TTITLE3=The Soul Of A Man
TTITLE4=High Temperature
TTITLE5=Pain and Paradise
TTITLE6=Is Love Enough
TTITLE7=Trouble On The Way
TTITLE8=I Told You So
TTITLE9=Snap It
EXTD=
EXTT0=
EXTT1=
EXTT2=
EXTT3=
EXTT4=
EXTT5=
EXTT6=
EXTT7=
EXTT8=
EXTT9=
PLAYORDER=
